# xmcd CD database file
#
# Track frame offsets:
#	150
#	12749
#	28244
#	43664
#	61551
#	76905
#	93292
#	108894
#	127607
#	140146
#	155698
#	174991
#	186495
#	206751
#	226462
#	243146
#	259087
#	278776
#	295344
#	311929
#
# Disc length: 4394 seconds
#
# Revision: 0
# Processed by: cddbd v1.5.2PL0 Copyright (c) Steve Scherf et al.
# Submitted via: CDex 1.70beta2
#
DISCID=1c112814
DTITLE=Nancy HAYS - Not Available
DYEAR=1900
DGENRE=Country
TTITLE0=Come dance with me
TTITLE1=Not Available - Not Available
TTITLE2=tomauno - BR549 - "THAT'S WHAT I GET"
TTITLE3=John ANDERSON - Seminol wind
TTITLE4=Billy Ray Cyrus - Achy breaky heart
TTITLE5=Not Available - Not Available
TTITLE6=Not Available - Not Available
TTITLE7=Not Available - Not Available
TTITLE8=Not Available - Not Available
TTITLE9=Not Available - Not Available
TTITLE10=Not Available - Not Available
TTITLE11=Not Available - Not Available
TTITLE12=Not Available - Not Available
TTITLE13=Not Available - Not Available
TTITLE14=Not Available - Not Available
TTITLE15=Not Available - Not Available
TTITLE16=Not Available - Not Available
TTITLE17=Not Available - Not Available
TTITLE18=Not Available - Not Available
TTITLE19=Jann Browne - Mexican Wind
EXTD=
EXTT0=
EXTT1=
EXTT2=
EXTT3=
EXTT4=
EXTT5=
EXTT6=
EXTT7=
EXTT8=
EXTT9=
EXTT10=
EXTT11=
EXTT12=
EXTT13=
EXTT14=
EXTT15=
EXTT16=
EXTT17=
EXTT18=
EXTT19=
PLAYORDER=
